<?xml version="1.0" encoding="utf-8"?>
<!DOCTYPE svg PUBLIC "-//W3C//DTD SVG 20010904//EN" "http://www.w3.org/TR/2001/REC-SVG-20010904/DTD/svg10.dtd">
<svg version="1.0" xmlns="http://www.w3.org/2000/svg" width="419pt" height="108pt" viewBox="0 0 419 108" preserveAspectRatio="xMidYMid meet">
<g fill="#010101FE">
<path d="M 4.45 103.55 L 2.00 101.09 L 2.00 61.50 L 2.00 21.91 L 4.39 19.52 L 6.78 17.13 L 37.14 17.08 C 56.17 17.05 68.73 17.44 70.79 18.11 C 73.38 18.95 74.93 18.84 78.06 17.59 C 83.51 15.41 111.41 15.31 116.53 17.45 C 119.56 18.71 120.44 18.71 123.47 17.45 C 125.38 16.65 128.98 16.00 131.47 16.00 L 136.00 16.00 L 136.03 11.75 C 136.09 3.70 139.22 2.00 154.01 2.00 C 164.99 2.00 165.20 2.04 168.08 4.92 C 170.35 7.20 171.00 8.75 171.00 11.92 L 171.00 16.00 L 190.75 16.17 C 201.61 16.26 213.67 16.21 217.55 16.07 C 222.19 15.90 225.87 16.34 228.30 17.35 C 231.53 18.70 232.43 18.72 235.38 17.48 C 239.99 15.56 313.88 15.47 318.46 17.38 C 320.83 18.37 322.14 18.36 324.96 17.35 C 330.18 15.49 358.01 15.56 362.53 17.45 C 365.56 18.71 366.44 18.71 369.47 17.45 C 372.00 16.39 377.21 16.00 388.81 16.00 C 403.40 16.00 405.03 16.18 408.99 18.27 C 416.64 22.32 416.96 23.72 416.96 52.48 C 416.96 81.51 416.64 82.92 409.04 86.75 C 404.95 88.81 403.23 89.00 388.54 88.95 C 377.67 88.92 371.53 88.49 369.50 87.61 C 367.00 86.53 365.83 86.55 362.50 87.73 C 359.51 88.79 353.96 89.10 340.50 88.94 C 330.60 88.83 313.67 88.80 302.88 88.87 L 283.26 89.00 L 282.73 92.95 C 282.02 98.30 278.85 102.44 273.99 104.39 C 270.76 105.68 266.07 106.00 250.43 106.00 C 231.04 106.00 230.89 105.98 228.45 103.55 C 226.39 101.48 226.00 100.13 226.00 95.09 L 226.00 89.08 L 174.25 88.79 C 145.79 88.63 113.16 88.63 101.75 88.79 L 81.00 89.08 L 81.00 93.99 C 81.00 100.02 79.54 103.43 76.34 104.89 C 74.71 105.63 62.83 106.00 40.41 106.00 L 6.91 106.00 L 4.45 103.55ZM 72.00 90.00 L 72.00 83.00 L 49.50 83.00 L 27.00 83.00 L 27.00 53.46 L 27.00 23.92 L 18.25 24.21 L 9.50 24.50 L 9.24 60.75 L 8.98 97.00 L 40.49 97.00 L 72.00 97.00 L 72.00 90.00ZM 272.00 95.00 C 273.92 93.08 274.00 91.67 274.00 58.50 L 274.00 24.00 L 255.50 24.00 C 238.33 24.00 236.86 24.14 235.00 26.00 C 233.11 27.89 233.00 29.33 233.00 52.00 C 233.00 81.37 232.36 80.00 246.00 80.00 C 253.33 80.00 255.00 80.28 255.00 81.50 C 255.00 82.74 253.11 83.00 244.00 83.00 L 233.00 83.00 L 233.00 90.00 L 233.00 97.00 L 251.50 97.00 C 268.67 97.00 270.14 96.86 272.00 95.00ZM 252.00 52.00 C 252.00 40.22 252.24 38.00 253.50 38.00 C 254.76 38.00 255.00 40.22 255.00 52.00 C 255.00 63.78 254.76 66.00 253.50 66.00 C 252.24 66.00 252.00 63.78 252.00 52.00ZM 69.93 77.37 C 71.88 74.88 72.00 73.47 72.00 52.93 C 72.00 30.57 71.50 26.81 68.33 25.54 C 65.44 24.39 46.91 23.66 40.58 24.45 C 30.83 25.67 31.00 25.15 31.00 52.50 C 31.00 74.67 31.11 76.11 33.00 78.00 C 34.84 79.84 36.33 80.00 51.43 80.00 L 67.85 80.00 L 69.93 77.37ZM 50.00 52.50 C 50.00 41.17 50.24 39.00 51.50 39.00 C 52.76 39.00 53.00 41.17 53.00 52.50 C 53.00 63.83 52.76 66.00 51.50 66.00 C 50.24 66.00 50.00 63.83 50.00 52.50ZM 117.00 54.00 C 117.00 29.33 116.90 27.90 115.00 26.00 C 113.16 24.16 111.67 24.00 96.50 24.00 C 76.24 24.00 76.00 24.13 76.00 35.00 L 76.00 42.00 L 85.09 42.00 C 93.35 42.00 94.24 41.82 94.71 40.00 C 95.61 36.54 98.00 37.63 98.00 41.50 L 98.00 45.00 L 89.00 45.00 C 76.11 45.00 76.00 45.15 76.00 62.50 C 76.00 81.04 74.66 80.00 98.50 80.00 L 117.00 80.00 L 117.00 54.00ZM 95.00 62.00 C 95.00 59.11 95.42 58.00 96.50 58.00 C 97.58 58.00 98.00 59.11 98.00 62.00 C 98.00 64.89 97.58 66.00 96.50 66.00 C 95.42 66.00 95.00 64.89 95.00 62.00ZM 162.00 45.00 L 162.00 10.00 L 152.50 10.00 L 143.00 10.00 L 143.00 17.00 L 143.00 24.00 L 134.22 24.00 C 120.18 24.00 121.00 22.27 121.00 52.00 C 121.00 76.58 121.03 76.91 123.22 78.44 C 125.04 79.71 128.80 80.00 143.72 80.00 L 162.00 80.00 L 162.00 45.00ZM 139.00 52.00 C 139.00 38.67 139.10 38.00 141.00 38.00 C 142.90 38.00 143.00 38.67 143.00 52.00 C 143.00 65.33 142.90 66.00 141.00 66.00 C 139.10 66.00 139.00 65.33 139.00 52.00ZM 184.00 52.00 L 184.00 24.00 L 175.00 24.00 L 166.00 24.00 L 166.00 52.00 L 166.00 80.00 L 175.00 80.00 L 184.00 80.00 L 184.00 52.00ZM 207.00 58.93 C 207.00 39.40 207.13 37.88 208.75 38.19 C 210.34 38.50 210.52 40.43 210.77 59.26 L 211.04 80.00 L 220.02 80.00 L 229.00 80.00 L 229.00 54.00 C 229.00 23.19 229.27 24.00 218.75 24.01 C 215.28 24.01 211.28 24.65 209.75 25.45 C 207.36 26.69 207.00 26.69 207.00 25.44 C 207.00 24.29 205.10 24.00 197.50 24.00 L 188.00 24.00 L 188.00 52.00 L 188.00 80.00 L 197.50 80.00 L 207.00 80.00 L 207.00 58.93ZM 319.00 71.00 L 319.00 62.00 L 309.50 62.00 C 300.67 62.00 300.00 62.14 300.00 64.00 C 300.00 65.33 299.33 66.00 298.00 66.00 C 296.38 66.00 296.00 65.33 296.00 62.50 L 296.00 59.00 L 305.43 59.00 C 314.42 59.00 314.95 58.88 316.93 56.37 C 318.77 54.03 319.00 52.36 319.00 41.50 C 319.00 30.64 318.77 28.97 316.93 26.63 L 314.85 24.00 L 298.43 24.00 C 278.25 24.00 278.00 24.13 278.00 35.00 L 278.00 42.00 L 286.88 42.00 C 294.93 42.00 295.82 41.81 296.29 40.00 C 296.58 38.90 297.53 38.00 298.41 38.00 C 299.56 38.00 300.00 38.96 300.00 41.50 L 300.00 45.00 L 291.22 45.00 C 277.73 45.00 278.00 44.62 278.00 64.06 L 278.00 80.00 L 298.50 80.00 L 319.00 80.00 L 319.00 71.00ZM 360.78 78.44 C 362.85 76.99 363.00 76.13 363.00 65.50 C 363.00 58.38 362.59 53.87 361.91 53.45 C 361.13 52.96 361.13 52.47 361.91 51.69 C 362.57 51.03 363.00 45.98 363.00 38.86 C 363.00 23.43 363.78 24.00 342.89 24.00 C 323.16 24.00 322.50 24.35 322.50 34.66 L 322.50 41.50 L 331.75 41.79 C 340.48 42.06 341.00 41.96 341.00 40.04 C 341.00 38.67 341.65 38.00 343.00 38.00 C 344.67 38.00 345.00 38.67 345.00 42.00 L 345.00 46.00 L 334.00 46.00 L 323.00 46.00 L 323.00 52.00 L 323.00 58.00 L 334.00 58.00 L 345.00 58.00 L 345.00 62.00 C 345.00 65.33 344.67 66.00 343.00 66.00 C 341.67 66.00 341.00 65.33 341.00 64.00 C 341.00 62.14 340.33 62.00 331.50 62.00 L 322.00 62.00 L 322.00 68.37 C 322.00 73.29 322.47 75.33 324.07 77.37 L 326.15 80.00 L 342.35 80.00 C 355.40 80.00 358.99 79.70 360.78 78.44ZM 406.00 78.00 C 407.74 76.26 408.00 74.67 408.00 65.57 C 408.00 57.72 407.64 54.78 406.53 53.67 C 405.23 52.37 405.23 52.05 406.53 50.98 C 407.66 50.04 408.00 47.23 408.00 38.88 C 408.00 23.55 408.62 24.00 387.69 24.00 C 367.45 24.00 367.00 24.24 367.00 35.04 L 367.00 42.00 L 376.09 42.00 C 384.35 42.00 385.24 41.82 385.71 40.00 C 386.68 36.30 389.00 37.69 389.00 41.97 L 389.00 45.93 L 378.25 46.22 L 367.50 46.50 L 367.20 52.25 L 366.90 58.00 L 377.95 58.00 L 389.00 58.00 L 389.00 62.00 C 389.00 66.30 386.68 67.71 385.71 64.00 C 385.24 62.18 384.35 62.00 376.09 62.00 L 367.00 62.00 L 367.00 69.00 C 367.00 79.87 367.24 80.00 387.50 80.00 C 402.67 80.00 404.16 79.84 406.00 78.00Z"/></g>
<g fill="#FEFEFEFF">
<path d="M 234.00 90.00 L 234.00 83.00 L 245.00 83.00 C 253.69 83.00 256.00 82.71 256.00 81.62 C 256.00 80.57 253.73 80.14 246.60 79.83 C 240.81 79.57 236.59 78.91 235.60 78.09 C 234.21 76.93 234.00 73.49 234.00 52.00 C 234.00 30.21 234.20 27.08 235.65 25.87 C 236.88 24.85 241.89 24.41 255.15 24.17 L 273.00 23.84 L 272.98 58.17 C 272.98 77.05 272.63 93.03 272.21 93.69 C 270.61 96.21 265.32 97.00 249.93 97.00 L 234.00 97.00 L 234.00 90.00ZM 256.00 52.00 L 256.00 38.00 L 253.50 38.00 L 251.00 38.00 L 251.00 52.00 L 251.00 66.00 L 253.50 66.00 L 256.00 66.00 L 256.00 52.00Z"/></g>
<g fill="#FEFEFEFF">
<path d="M 126.26 79.30 C 121.40 78.36 121.00 76.26 121.00 51.89 C 121.00 23.57 120.41 24.79 134.37 24.18 L 144.00 23.76 L 144.00 16.88 L 144.00 10.00 L 152.50 10.00 L 161.00 10.00 L 161.00 45.00 L 161.00 80.00 L 144.75 79.86 C 135.81 79.79 127.49 79.53 126.26 79.30ZM 144.00 52.00 L 144.00 38.00 L 141.50 38.00 L 139.00 38.00 L 139.00 52.00 L 139.00 66.00 L 141.50 66.00 L 144.00 66.00 L 144.00 52.00Z"/></g>
<g fill="#FEFEFEFF">
<path d="M 36.50 79.28 C 32.05 78.18 32.00 77.90 32.00 52.50 C 32.00 31.18 32.20 28.08 33.65 26.87 C 35.39 25.43 60.94 24.27 65.55 25.42 C 70.89 26.76 71.00 27.32 70.98 52.32 C 70.98 65.07 70.63 76.03 70.21 76.69 C 68.66 79.13 63.51 80.00 51.18 79.88 C 44.21 79.82 37.60 79.55 36.50 79.28ZM 53.50 52.50 C 53.50 38.74 53.46 38.49 51.25 38.18 C 49.00 37.86 49.00 37.89 49.00 52.50 C 49.00 67.11 49.00 67.14 51.25 66.82 C 53.46 66.51 53.50 66.26 53.50 52.50Z"/></g>
<g fill="#FEFEFEFF">
<path d="M 81.50 79.28 C 77.24 78.23 77.00 77.33 77.00 62.33 L 77.00 47.90 L 80.47 46.45 C 82.45 45.62 87.15 45.00 91.47 45.00 L 99.00 45.00 L 99.00 41.50 C 99.00 38.43 98.69 38.00 96.50 38.00 C 94.94 38.00 94.00 38.57 94.00 39.50 C 94.00 40.72 92.39 41.00 85.50 41.00 L 77.00 41.00 L 77.00 33.95 L 77.00 26.90 L 80.47 25.45 C 82.87 24.45 87.78 24.00 96.40 24.00 C 108.56 24.00 113.68 24.90 115.21 27.31 C 115.63 27.97 115.98 40.09 115.98 54.25 L 116.00 80.00 L 99.75 79.88 C 90.81 79.82 82.60 79.55 81.50 79.28ZM 99.00 61.50 C 99.00 57.37 98.80 57.00 96.50 57.00 C 94.20 57.00 94.00 57.37 94.00 61.50 C 94.00 65.63 94.20 66.00 96.50 66.00 C 98.80 66.00 99.00 65.63 99.00 61.50Z"/></g>
<g fill="#FEFEFEFF">
<path d="M 189.00 52.00 L 189.00 24.00 L 197.50 24.00 C 205.37 24.00 206.00 24.15 206.00 26.03 C 206.00 27.98 206.11 27.99 209.18 26.41 C 211.02 25.46 215.01 24.71 218.64 24.63 C 228.79 24.42 228.45 23.43 228.80 54.03 L 229.09 80.00 L 220.05 80.00 L 211.00 80.00 L 211.00 59.00 L 211.00 38.00 L 208.50 38.00 L 206.00 38.00 L 206.00 59.00 L 206.00 80.00 L 197.50 80.00 L 189.00 80.00 L 189.00 52.00Z"/></g>
<g fill="#FEFEFEFF">
<path d="M 278.18 64.53 C 278.58 45.27 278.24 45.76 291.49 45.18 L 301.00 44.76 L 301.00 41.38 C 301.00 38.44 300.67 38.00 298.50 38.00 C 296.94 38.00 296.00 38.57 296.00 39.50 C 296.00 40.72 294.32 41.00 286.88 41.00 L 277.77 41.00 L 278.18 34.49 C 278.79 24.90 279.33 24.57 295.09 24.15 C 302.24 23.95 309.64 24.08 311.52 24.44 C 317.59 25.58 318.00 26.66 317.98 41.32 C 317.98 48.57 317.63 55.03 317.21 55.69 C 315.85 57.83 310.99 59.00 303.43 59.00 L 296.00 59.00 L 296.00 62.50 C 296.00 65.57 296.31 66.00 298.50 66.00 C 300.06 66.00 301.00 65.43 301.00 64.50 C 301.00 63.28 302.61 63.00 309.50 63.00 L 318.00 63.00 L 318.00 71.50 L 318.00 80.00 L 297.93 80.00 L 277.86 80.00 L 278.18 64.53Z"/></g>
<g fill="#FEFEFEFF">
<path d="M 328.00 79.34 C 324.00 77.74 323.00 75.75 323.00 69.35 L 323.00 63.00 L 331.50 63.00 C 338.39 63.00 340.00 63.28 340.00 64.50 C 340.00 65.43 340.94 66.00 342.50 66.00 C 344.75 66.00 345.00 65.60 345.00 62.00 L 345.00 58.00 L 334.00 58.00 L 323.00 58.00 L 323.00 52.50 L 323.00 47.00 L 334.00 47.00 L 345.00 47.00 L 345.00 42.50 C 345.00 38.37 344.80 38.00 342.50 38.00 C 340.94 38.00 340.00 38.57 340.00 39.50 C 340.00 40.72 338.39 41.00 331.50 41.00 L 323.00 41.00 L 323.00 35.11 C 323.00 30.80 323.51 28.59 324.91 26.86 C 326.78 24.56 327.21 24.50 343.00 24.50 C 363.33 24.50 363.00 24.26 363.00 39.12 C 363.00 47.71 362.74 49.24 361.04 50.70 C 359.10 52.36 359.10 52.38 361.04 53.74 C 362.76 54.95 363.00 56.32 363.00 64.95 C 363.00 79.54 363.12 79.44 344.34 79.72 C 336.18 79.84 328.82 79.66 328.00 79.34Z"/></g>
<g fill="#FEFEFEFF">
<path d="M 9.00 61.00 L 9.00 25.00 L 18.00 25.00 L 27.00 25.00 L 27.00 54.50 L 27.00 84.00 L 49.00 84.00 L 71.00 84.00 L 71.00 90.50 L 71.00 97.00 L 40.00 97.00 L 9.00 97.00 L 9.00 61.00Z"/></g>
<g fill="#FEFEFEFF">
<path d="M 372.50 79.28 C 368.67 78.33 368.00 76.94 368.00 69.88 L 368.00 63.00 L 376.50 63.00 C 383.39 63.00 385.00 63.28 385.00 64.50 C 385.00 65.43 385.94 66.00 387.50 66.00 C 389.75 66.00 390.00 65.60 390.00 62.00 L 390.00 58.00 L 379.00 58.00 L 368.00 58.00 L 368.00 52.50 L 368.00 47.00 L 379.00 47.00 L 390.00 47.00 L 390.00 42.50 C 390.00 38.37 389.80 38.00 387.50 38.00 C 385.94 38.00 385.00 38.57 385.00 39.50 C 385.00 40.72 383.39 41.00 376.50 41.00 L 368.00 41.00 L 368.02 34.75 C 368.02 31.31 368.37 27.97 368.79 27.31 C 370.32 24.91 375.43 24.00 387.50 24.00 C 399.57 24.00 404.68 24.91 406.21 27.31 C 406.63 27.97 406.98 33.28 406.98 39.13 C 407.00 47.56 406.68 50.02 405.44 51.05 C 404.02 52.23 404.02 52.43 405.44 53.22 C 406.71 53.94 407.00 56.21 407.00 65.60 L 407.00 77.10 L 403.53 78.55 C 400.15 79.96 377.46 80.49 372.50 79.28Z"/></g>
<g fill="#FEFEFEFF">
<path d="M 166.00 52.00 L 166.00 24.00 L 175.00 24.00 L 184.00 24.00 L 184.00 52.00 L 184.00 80.00 L 175.00 80.00 L 166.00 80.00 L 166.00 52.00Z"/></g>
<g fill="#6B6B6BFF">
<path d="M 161.45 45.00 C 161.45 25.48 161.58 17.49 161.75 27.25 C 161.91 37.01 161.91 52.99 161.75 62.75 C 161.58 72.51 161.45 64.53 161.45 45.00Z"/></g>
<g fill="#9B9B9BFF">
<path d="M 273.45 58.00 C 273.45 39.02 273.58 31.26 273.75 40.75 C 273.91 50.24 273.91 65.76 273.75 75.25 C 273.58 84.74 273.45 76.97 273.45 58.00Z"/></g>
<g fill="#9B9B9BFF">
<path d="M 188.44 52.00 C 188.44 36.32 188.58 29.91 188.75 37.75 C 188.92 45.59 188.92 58.41 188.75 66.25 C 188.58 74.09 188.44 67.68 188.44 52.00Z"/></g>
<g fill="#9B9B9BFF">
<path d="M 71.19 90.77 L 71.00 84.04 L 49.25 83.75 L 27.50 83.46 L 49.28 83.23 C 66.90 83.04 71.16 83.26 71.59 84.36 C 71.87 85.11 71.94 88.37 71.74 91.61 L 71.38 97.50 L 71.19 90.77Z"/></g>
<g fill="#9B9B9BFF">
<path d="M 116.44 54.50 C 116.44 40.20 116.58 34.49 116.75 41.81 C 116.92 49.13 116.92 60.83 116.75 67.81 C 116.58 74.79 116.44 68.80 116.44 54.50Z"/></g>
<g fill="#CECECEFF">
<path d="M 233.43 52.00 C 233.43 39.62 233.57 34.56 233.75 40.75 C 233.92 46.94 233.92 57.06 233.75 63.25 C 233.57 69.44 233.43 64.38 233.43 52.00Z"/></g>
<g fill="#CECECEFF">
<path d="M 31.43 52.50 C 31.43 40.40 31.57 35.59 31.75 41.81 C 31.92 48.02 31.92 57.92 31.75 63.81 C 31.57 69.69 31.43 64.60 31.43 52.50Z"/></g>
<g fill="#9B9B9BFF">
<path d="M 206.42 59.00 C 206.42 47.17 206.57 42.34 206.75 48.25 C 206.92 54.16 206.92 63.84 206.75 69.75 C 206.57 75.66 206.42 70.83 206.42 59.00Z"/></g>
<g fill="#9B9B9BFF">
<path d="M 71.42 52.50 C 71.42 40.95 71.57 36.36 71.75 42.30 C 71.92 48.25 71.92 57.70 71.75 63.30 C 71.57 68.91 71.42 64.05 71.42 52.50Z"/></g>
<g fill="#9B9B9BFF">
<path d="M 53.22 52.82 C 53.03 40.75 52.80 39.09 51.25 38.69 C 49.61 38.26 49.61 38.22 51.28 38.12 C 53.88 37.95 54.09 39.28 53.75 53.55 L 53.43 66.50 L 53.22 52.82Z"/></g>
<g fill="#393939FF">
<path d="M 251.40 52.00 C 251.40 44.02 251.55 40.76 251.74 44.75 C 251.93 48.74 251.93 55.26 251.74 59.25 C 251.55 63.24 251.40 59.98 251.40 52.00Z"/></g>
<g fill="#6B6B6BFF">
<path d="M 255.40 52.00 C 255.40 44.02 255.55 40.76 255.74 44.75 C 255.93 48.74 255.93 55.26 255.74 59.25 C 255.55 63.24 255.40 59.98 255.40 52.00Z"/></g>
<g fill="#6B6B6BFF">
<path d="M 322.42 68.26 L 322.50 62.50 L 331.25 62.44 L 340.01 62.38 L 331.55 62.73 L 323.10 63.08 L 322.72 68.54 L 322.34 74.01 L 322.42 68.26Z"/></g>
<g fill="#9B9B9BFF">
<path d="M 143.40 52.00 C 143.40 44.02 143.55 40.76 143.74 44.75 C 143.93 48.74 143.93 55.26 143.74 59.25 C 143.55 63.24 143.40 59.98 143.40 52.00Z"/></g>
<g fill="#393939FF">
<path d="M 49.39 52.50 C 49.40 44.80 49.55 41.78 49.74 45.79 C 49.93 49.81 49.93 56.11 49.74 59.79 C 49.55 63.48 49.39 60.20 49.39 52.50Z"/></g>
<g fill="#9B9B9BFF">
<path d="M 318.38 41.50 C 318.38 34.90 318.55 32.33 318.74 35.79 C 318.94 39.25 318.94 44.65 318.74 47.79 C 318.54 50.93 318.38 48.10 318.38 41.50Z"/></g>
<g fill="#393939FF">
<path d="M 45.25 24.26 C 48.41 24.06 53.59 24.06 56.75 24.26 C 59.91 24.46 57.33 24.62 51.00 24.62 C 44.67 24.62 42.09 24.46 45.25 24.26Z"/></g>
<g fill="#393939FF">
<path d="M 328.25 46.26 C 331.41 46.06 336.59 46.06 339.75 46.26 C 342.91 46.46 340.32 46.62 334.00 46.62 C 327.68 46.62 325.09 46.46 328.25 46.26Z"/></g>
<g fill="#393939FF">
<path d="M 373.29 46.26 C 376.47 46.06 381.42 46.06 384.29 46.26 C 387.15 46.47 384.55 46.63 378.50 46.63 C 372.45 46.62 370.10 46.46 373.29 46.26Z"/></g>
<g fill="#CECECEFF">
<path d="M 76.37 62.50 C 76.38 56.45 76.54 54.10 76.74 57.29 C 76.94 60.47 76.94 65.42 76.74 68.29 C 76.53 71.15 76.37 68.55 76.37 62.50Z"/></g>
<g fill="#9B9B9BFF">
<path d="M 407.37 39.00 C 407.37 33.22 407.54 30.86 407.74 33.75 C 407.94 36.64 407.94 41.36 407.74 44.25 C 407.54 47.14 407.37 44.78 407.37 39.00Z"/></g>
<g fill="#9B9B9BFF">
<path d="M 407.37 65.00 C 407.37 59.22 407.54 56.86 407.74 59.75 C 407.94 62.64 407.94 67.36 407.74 70.25 C 407.54 73.14 407.37 70.78 407.37 65.00Z"/></g>
<g fill="#6B6B6BFF">
<path d="M 282.25 41.26 C 284.86 41.06 289.14 41.06 291.75 41.26 C 294.36 41.47 292.23 41.64 287.00 41.64 C 281.77 41.64 279.64 41.47 282.25 41.26Z"/></g>
<g fill="#6B6B6BFF">
<path d="M 80.25 41.26 C 82.86 41.06 87.14 41.06 89.75 41.26 C 92.36 41.47 90.22 41.64 85.00 41.64 C 79.78 41.64 77.64 41.47 80.25 41.26Z"/></g>
<g fill="#6B6B6BFF">
<path d="M 371.25 62.26 C 373.86 62.06 378.14 62.06 380.75 62.26 C 383.36 62.47 381.23 62.64 376.00 62.64 C 370.77 62.64 368.64 62.47 371.25 62.26Z"/></g>
<g fill="#393939FF">
<path d="M 14.28 24.26 C 16.91 24.06 20.96 24.06 23.28 24.27 C 25.60 24.48 23.45 24.65 18.50 24.65 C 13.55 24.64 11.65 24.47 14.28 24.26Z"/></g>
<g fill="#6B6B6BFF">
<path d="M 372.28 41.26 C 374.91 41.06 378.96 41.06 381.28 41.27 C 383.60 41.48 381.45 41.65 376.50 41.65 C 371.55 41.64 369.65 41.47 372.28 41.26Z"/></g>
<g fill="#6B6B6BFF">
<path d="M 327.28 41.26 C 329.91 41.06 333.96 41.06 336.28 41.27 C 338.60 41.48 336.45 41.65 331.50 41.65 C 326.55 41.64 324.65 41.47 327.28 41.26Z"/></g>
<g fill="#6B6B6BFF">
<path d="M 305.28 62.26 C 307.91 62.06 311.96 62.06 314.28 62.27 C 316.60 62.48 314.45 62.65 309.50 62.65 C 304.55 62.64 302.65 62.47 305.28 62.26Z"/></g>
<g fill="#9B9B9BFF">
<path d="M 318.35 71.50 C 318.35 66.55 318.52 64.40 318.73 66.72 C 318.94 69.04 318.94 73.09 318.74 75.72 C 318.53 78.35 318.36 76.45 318.35 71.50Z"/></g>
<g fill="#CECECEFF">
<path d="M 233.34 90.00 C 233.34 85.88 233.51 84.19 233.73 86.25 C 233.94 88.31 233.94 91.69 233.73 93.75 C 233.51 95.81 233.34 94.12 233.34 90.00Z"/></g>
<g fill="#9B9B9BFF">
<path d="M 143.34 17.00 C 143.34 12.88 143.51 11.19 143.73 13.25 C 143.94 15.31 143.94 18.69 143.73 20.75 C 143.51 22.81 143.34 21.12 143.34 17.00Z"/></g>
</svg>
