<?xml version="1.0" encoding="utf-8"?>
<!DOCTYPE svg PUBLIC "-//W3C//DTD SVG 20010904//EN" "http://www.w3.org/TR/2001/REC-SVG-20010904/DTD/svg10.dtd">
<svg version="1.0" xmlns="http://www.w3.org/2000/svg" width="646pt" height="77pt" viewBox="0 0 646 77" preserveAspectRatio="xMidYMid meet">
<g fill="#010101FE">
<path d="M 381.82 74.21 L 375.15 73.91 L 374.55 67.71 C 372.65 48.10 371.12 22.76 371.54 18.00 C 372.74 4.28 373.60 7.23 375.38 31.14 C 376.37 44.54 377.40 56.29 377.66 57.25 C 378.10 58.87 380.51 59.00 410.15 59.00 L 442.16 59.00 L 441.61 56.25 C 439.42 45.22 438.99 40.69 439.84 37.61 C 440.73 34.38 440.63 34.18 437.69 33.34 C 435.01 32.57 434.44 31.78 433.46 27.48 L 432.32 22.50 L 431.16 25.32 C 430.52 26.86 430.00 29.16 430.00 30.42 C 430.00 32.58 429.52 32.73 420.85 33.35 C 415.81 33.71 409.10 34.00 405.93 34.00 L 400.18 34.00 L 399.61 30.25 C 399.31 28.19 398.77 24.36 398.41 21.75 L 397.77 17.00 L 416.26 17.00 L 434.74 17.00 L 436.01 12.47 C 437.52 7.06 438.75 6.00 439.47 9.46 C 439.76 10.86 440.23 13.11 440.51 14.48 L 441.03 16.95 L 457.26 17.23 L 473.50 17.50 L 473.82 20.25 L 474.13 23.00 L 461.07 23.00 L 448.00 23.00 L 448.00 25.50 C 448.00 27.53 447.51 28.00 445.39 28.00 C 443.20 28.00 442.87 28.36 443.30 30.25 C 443.58 31.49 444.83 38.46 446.08 45.75 L 448.35 59.00 L 478.24 59.00 C 506.24 59.00 508.10 58.89 507.63 57.25 C 507.35 56.29 506.62 53.48 506.00 51.00 C 504.00 42.95 504.03 43.00 500.90 43.00 C 497.91 43.00 495.76 40.43 497.68 39.15 C 499.10 38.19 500.10 35.00 498.97 35.00 C 498.44 35.00 498.00 35.67 498.00 36.50 C 498.00 37.33 497.55 38.00 497.00 38.00 C 496.45 38.00 496.00 38.85 496.00 39.89 C 496.00 42.63 494.20 43.00 481.03 43.00 C 469.24 43.00 469.23 43.00 468.76 40.50 L 468.28 38.00 L 481.76 38.00 L 495.23 38.00 L 494.76 35.50 C 494.32 33.23 494.59 33.00 497.64 33.00 C 499.49 33.00 500.99 32.66 500.98 32.25 C 500.97 31.84 499.92 27.44 498.65 22.49 C 496.48 14.06 496.43 13.27 497.92 10.27 C 500.38 5.29 501.59 5.61 502.93 11.59 L 504.14 17.00 L 519.57 17.00 C 528.06 17.00 535.01 17.34 535.01 17.75 C 535.02 18.16 535.30 19.51 535.63 20.75 L 536.23 23.00 L 521.05 23.00 C 507.07 23.00 505.90 23.14 506.35 24.75 C 506.62 25.71 507.57 29.09 508.45 32.25 L 510.06 38.00 L 525.42 38.00 C 541.18 38.00 542.00 38.20 542.00 42.08 C 542.00 42.60 535.44 43.00 527.00 43.00 C 515.67 43.00 512.00 43.31 511.99 44.25 C 511.99 44.94 512.76 48.54 513.71 52.25 L 515.44 59.00 L 540.30 59.00 L 565.16 59.00 L 564.54 56.20 C 563.95 53.48 564.03 53.41 567.56 53.82 C 570.28 54.14 571.10 53.90 570.84 52.87 C 570.64 52.12 568.93 46.89 567.03 41.25 C 563.99 32.24 563.30 31.00 561.29 31.00 C 560.03 31.00 559.00 30.55 559.00 30.00 C 559.00 29.45 559.88 29.00 560.96 29.00 C 562.82 29.00 562.76 28.56 559.82 20.47 C 557.23 13.37 556.90 11.52 557.83 9.47 C 559.47 5.88 560.39 6.39 562.40 12.00 L 564.20 17.00 L 579.07 17.00 C 592.74 17.00 594.01 17.16 594.96 18.93 C 597.05 22.82 596.45 23.00 581.09 23.00 L 566.18 23.00 L 568.84 30.50 L 571.50 37.99 L 587.09 38.00 L 602.68 38.00 L 603.82 40.50 L 604.96 43.00 L 589.48 43.00 C 580.97 43.00 574.00 43.36 574.00 43.81 C 574.00 44.25 575.05 47.74 576.34 51.56 L 578.68 58.50 L 602.59 58.75 C 615.74 58.89 627.10 59.23 627.83 59.50 C 628.72 59.84 628.08 60.89 625.84 62.75 C 624.02 64.26 620.55 67.41 618.12 69.75 L 613.71 74.00 L 589.98 74.00 L 566.26 74.00 L 564.99 69.47 C 564.30 66.99 563.32 64.70 562.82 64.39 C 561.87 63.80 558.64 65.97 559.37 66.70 C 559.60 66.93 558.19 68.66 556.24 70.56 L 552.69 74.00 L 528.85 74.00 C 508.80 74.00 505.00 73.77 505.00 72.57 C 505.00 71.78 504.55 69.94 504.00 68.50 C 503.15 66.27 502.79 66.07 501.63 67.23 C 500.88 67.98 499.96 69.54 499.59 70.70 C 499.23 71.87 498.29 73.06 497.51 73.36 C 496.35 73.80 455.85 74.35 444.34 74.07 C 441.33 74.00 441.16 73.78 440.50 69.00 C 440.12 66.25 439.52 64.00 439.16 64.01 C 438.23 64.02 436.00 69.06 436.00 71.14 C 436.00 72.10 435.51 73.18 434.92 73.55 C 433.81 74.24 393.75 74.73 381.82 74.21Z"/></g>
<g fill="#010101FE">
<path d="M 152.19 73.00 C 151.23 70.41 147.71 66.06 146.95 66.53 C 146.55 66.78 145.93 68.56 145.57 70.49 L 144.91 74.00 L 113.95 74.00 C 88.16 74.00 83.00 73.77 83.00 72.61 C 83.00 71.04 80.31 69.69 78.91 70.56 C 78.41 70.87 78.00 71.77 78.00 72.56 C 78.00 73.78 73.91 74.00 51.53 74.00 L 25.07 74.00 L 22.22 71.25 C 20.65 69.74 17.49 66.86 15.19 64.86 C 12.88 62.86 11.00 60.73 11.00 60.11 C 11.00 59.32 18.91 59.00 38.34 59.00 L 65.68 59.00 L 67.50 53.00 C 68.50 49.70 69.62 47.00 69.99 47.00 C 71.77 47.00 73.08 51.66 72.06 54.35 C 71.48 55.88 71.00 57.55 71.00 58.07 C 71.00 58.63 83.93 59.00 103.30 59.00 L 135.61 59.00 L 142.06 32.88 L 148.51 6.77 L 150.76 10.99 L 153.01 15.21 L 148.01 36.48 C 145.25 48.17 143.00 58.04 143.00 58.40 C 143.00 58.76 148.74 58.93 155.75 58.78 L 168.50 58.50 L 169.92 50.75 L 171.35 43.00 L 175.05 43.00 L 178.75 43.00 L 177.41 49.25 C 175.13 59.87 174.26 59.10 188.25 58.78 L 200.50 58.50 L 204.18 35.50 C 206.20 22.85 208.03 11.38 208.24 10.00 C 208.55 7.94 208.74 7.80 209.31 9.25 C 210.09 11.22 211.24 14.25 211.50 15.00 C 211.60 15.28 212.05 16.37 212.52 17.44 C 213.04 18.63 212.33 26.46 210.67 37.94 C 209.20 48.15 207.99 57.06 207.99 57.75 C 208.00 58.72 214.07 59.00 235.00 59.00 L 262.00 59.00 L 262.00 56.50 C 262.00 54.40 262.47 54.00 264.95 54.00 C 268.45 54.00 268.62 53.36 269.50 36.50 C 269.81 30.45 270.37 23.02 270.74 20.00 L 271.41 14.50 L 272.17 20.50 C 272.86 25.99 271.53 61.47 270.43 66.75 C 270.07 68.48 269.27 69.00 266.98 69.00 C 264.47 69.00 264.00 69.39 264.00 71.50 C 264.00 74.42 266.44 74.18 235.62 74.23 L 214.73 74.26 L 212.42 69.38 C 211.15 66.70 210.09 63.94 210.06 63.25 C 209.93 60.44 208.05 62.26 207.49 65.75 C 206.16 74.00 206.37 73.71 201.26 74.19 C 198.64 74.44 193.57 74.44 190.00 74.20 L 183.50 73.76 L 181.08 68.88 C 179.76 66.19 178.32 64.00 177.90 64.00 C 177.47 64.00 176.81 66.06 176.44 68.58 C 176.06 71.10 175.24 73.33 174.62 73.54 C 174.01 73.75 168.83 74.05 163.12 74.21 C 154.63 74.45 152.64 74.23 152.19 73.00Z"/></g>
<g fill="#C3B8B6FE">
<path d="M 81.16 31.00 L 90.17 4.00 L 119.09 4.00 C 134.99 4.00 148.00 4.17 148.00 4.38 C 148.00 4.92 136.04 54.16 135.40 56.25 C 134.91 57.87 132.50 58.00 103.51 58.00 L 72.16 58.00 L 81.16 31.00ZM 118.43 38.75 C 121.51 27.93 124.00 18.51 124.00 17.73 C 124.00 17.29 120.08 17.05 115.28 17.21 L 106.56 17.50 L 102.79 30.00 C 100.72 36.88 99.01 42.84 99.01 43.25 C 99.00 43.66 103.04 44.00 107.97 44.00 L 116.94 44.00 L 118.43 38.75Z"/></g>
<g fill="#C3B8B6FE">
<path d="M 210.06 56.75 C 210.09 56.06 211.79 44.02 213.85 30.00 L 217.58 4.50 L 240.79 4.23 L 264.00 3.96 L 264.00 6.48 C 264.00 8.61 264.46 9.00 267.00 9.00 C 269.73 9.00 270.00 9.30 269.96 12.25 C 269.93 14.80 267.26 51.91 267.05 52.69 C 267.02 52.79 265.54 53.01 263.75 53.19 C 261.26 53.43 260.43 54.03 260.18 55.75 L 259.86 58.00 L 234.93 58.00 C 215.62 58.00 210.01 57.72 210.06 56.75ZM 246.85 32.69 C 248.57 15.72 248.93 17.00 242.52 17.00 C 236.18 17.00 236.69 16.03 235.05 31.17 C 233.54 45.12 233.12 44.00 239.85 44.00 L 245.71 44.00 L 246.85 32.69Z"/></g>
<g fill="#C3B8B6FE">
<path d="M 308.00 37.15 C 308.00 25.68 308.29 13.53 308.64 10.15 L 309.28 4.00 L 319.14 4.00 L 329.00 4.00 L 329.00 8.50 L 329.00 13.00 L 333.44 13.00 L 337.89 13.00 L 338.19 17.25 C 338.49 21.36 338.62 21.50 341.90 21.50 L 345.30 21.50 L 345.09 12.75 L 344.88 4.00 L 354.84 4.00 L 364.80 4.00 L 365.39 9.75 C 365.71 12.91 366.43 22.47 367.00 31.00 C 367.57 39.53 368.29 49.09 368.61 52.25 L 369.20 58.00 L 358.15 58.00 L 347.11 58.00 L 346.80 53.25 L 346.50 48.50 L 341.75 48.20 L 337.00 47.89 L 337.00 43.38 L 337.00 38.88 L 333.25 39.19 L 329.50 39.50 L 329.85 48.75 L 330.20 58.00 L 319.10 58.00 L 308.00 58.00 L 308.00 37.15Z"/></g>
<g fill="#C3B8B6FE">
<path d="M 145.38 56.25 C 145.66 55.29 148.44 43.48 151.55 30.00 C 154.67 16.52 157.42 5.16 157.67 4.75 C 157.91 4.34 169.34 4.00 183.06 4.00 C 204.63 4.00 208.00 4.20 208.00 5.51 C 208.00 6.34 206.20 18.26 204.00 32.00 C 201.80 45.74 200.00 57.21 200.00 57.49 C 200.00 57.77 194.99 58.00 188.88 58.00 L 177.75 58.00 L 178.43 54.75 C 178.80 52.96 179.37 49.34 179.70 46.69 L 180.29 41.88 L 175.40 42.19 L 170.50 42.50 L 168.65 50.25 L 166.80 58.00 L 155.83 58.00 C 145.86 58.00 144.91 57.84 145.38 56.25ZM 173.64 30.50 C 174.01 29.52 175.57 29.00 178.11 29.00 C 180.90 29.00 182.00 29.42 182.00 30.50 C 182.00 31.41 182.93 32.00 184.37 32.00 C 186.42 32.00 186.87 31.31 187.75 26.88 C 188.67 22.23 188.59 21.70 186.88 21.26 C 183.61 20.40 184.84 19.13 189.25 18.81 C 193.26 18.52 193.52 18.31 193.82 15.19 L 194.14 11.88 L 189.82 12.19 C 185.94 12.47 185.47 12.78 185.18 15.25 C 184.89 17.80 184.53 18.00 180.35 18.00 L 175.84 18.00 L 176.51 14.94 L 177.18 11.88 L 172.34 12.19 C 167.68 12.49 167.49 12.62 167.19 15.75 C 166.88 18.93 166.95 19.00 170.94 19.00 C 175.19 19.00 176.59 20.63 172.81 21.18 C 171.13 21.43 170.34 22.59 169.43 26.20 C 168.77 28.78 168.48 31.15 168.78 31.45 C 169.91 32.57 173.08 31.95 173.64 30.50Z"/></g>
<g fill="#C3B8B6FE">
<path d="M 449.00 57.65 C 449.00 57.46 447.88 51.28 446.51 43.90 C 445.14 36.53 444.01 30.16 444.01 29.75 C 444.00 29.34 445.35 29.00 447.00 29.00 C 449.53 29.00 450.00 28.61 450.00 26.50 L 450.00 24.00 L 462.50 24.00 C 476.01 24.00 476.08 23.97 474.01 18.52 L 473.02 15.91 L 457.26 16.05 L 441.50 16.20 L 440.81 12.35 C 440.43 10.23 440.09 7.48 440.06 6.23 L 440.00 3.96 L 463.25 4.23 L 486.50 4.50 L 486.82 6.75 C 487.08 8.55 487.78 9.00 490.38 9.00 L 493.62 9.00 L 496.31 19.39 C 497.79 25.10 499.00 30.28 499.00 30.89 C 499.00 31.50 497.71 32.00 496.14 32.00 C 493.63 32.00 493.34 32.30 493.76 34.50 L 494.23 37.00 L 481.12 37.00 C 468.85 37.00 468.00 37.12 468.00 38.92 C 468.00 43.97 468.10 44.00 485.94 44.00 L 502.66 44.00 L 503.80 48.75 C 504.44 51.36 505.24 54.51 505.59 55.75 L 506.23 58.00 L 477.62 58.00 C 461.88 58.00 449.00 57.84 449.00 57.65Z"/></g>
<g fill="#C3B8B6FE">
<path d="M 514.99 53.75 C 514.39 51.41 513.50 48.26 513.00 46.75 L 512.10 44.00 L 527.55 44.00 C 543.87 44.00 543.66 44.07 542.37 39.25 C 541.78 37.04 541.51 37.00 526.00 37.00 L 510.24 37.00 L 509.07 32.25 C 508.43 29.64 507.67 26.71 507.39 25.75 C 506.91 24.14 508.05 24.00 521.93 24.00 C 530.22 24.00 537.00 23.62 537.00 23.15 C 537.00 22.68 536.51 20.89 535.91 19.17 L 534.82 16.05 L 519.73 15.78 L 504.63 15.50 L 503.33 10.50 C 502.62 7.75 502.03 5.16 502.02 4.75 C 502.01 4.34 512.08 4.00 524.39 4.00 L 546.78 4.00 L 547.39 6.44 C 547.86 8.30 548.78 8.95 551.25 9.19 C 554.38 9.49 554.61 9.83 557.62 18.50 C 560.58 27.02 560.64 27.54 558.89 28.21 C 556.55 29.11 557.43 31.77 560.22 32.19 C 561.82 32.43 562.98 34.56 565.60 42.00 C 567.43 47.23 568.95 51.61 568.97 51.75 C 568.98 51.89 567.61 52.00 565.92 52.00 C 563.02 52.00 562.88 52.17 563.50 55.00 L 564.16 58.00 L 540.12 58.00 L 516.08 58.00 L 514.99 53.75Z"/></g>
<g fill="#C3B8B6FE">
<path d="M 378.56 52.75 C 377.46 42.86 375.00 11.90 375.00 7.95 L 375.00 4.00 L 402.93 4.00 C 434.27 4.00 431.28 3.19 432.52 12.00 L 433.15 16.50 L 415.92 16.20 C 406.15 16.03 398.29 16.31 397.76 16.84 C 396.94 17.66 397.82 29.23 399.59 40.75 L 400.09 44.00 L 410.55 44.00 C 416.30 44.00 420.98 43.66 420.96 43.25 C 420.93 42.84 420.54 40.59 420.09 38.25 L 419.27 34.00 L 427.62 34.00 C 435.46 34.00 435.99 34.14 436.46 36.25 C 437.12 39.17 439.99 56.27 440.00 57.25 C 440.00 57.66 426.31 58.00 409.57 58.00 L 379.14 58.00 L 378.56 52.75Z"/></g>
<g fill="#C3B8B6FE">
<path d="M 578.55 52.25 C 577.56 49.09 576.53 45.94 576.26 45.25 C 575.89 44.28 579.22 44.00 590.89 44.00 C 599.60 44.00 606.00 43.60 606.00 43.07 C 606.00 42.55 605.56 40.98 605.02 39.57 L 604.05 37.00 L 588.66 37.00 L 573.27 37.00 L 571.13 31.15 C 569.96 27.93 569.00 25.00 569.00 24.65 C 569.00 24.29 575.57 24.00 583.61 24.00 L 598.22 24.00 L 597.53 21.26 C 596.25 16.15 595.75 16.00 580.33 16.00 L 565.90 16.00 L 564.52 12.69 C 563.76 10.88 562.83 8.18 562.46 6.69 L 561.78 4.00 L 583.73 4.00 L 605.68 4.00 L 606.82 6.50 C 607.70 8.43 608.71 9.00 611.27 9.00 C 614.48 9.00 614.69 9.26 618.29 17.76 C 622.52 27.76 622.57 28.00 620.39 28.00 C 619.34 28.00 618.99 28.54 619.39 29.58 C 619.73 30.45 620.00 31.35 620.00 31.58 C 620.00 31.81 621.01 32.01 622.25 32.01 C 624.15 32.02 625.14 33.56 628.59 41.76 L 632.69 51.50 L 629.73 51.82 C 627.05 52.11 626.83 52.41 627.36 55.07 L 627.95 58.00 L 604.16 58.00 L 580.37 58.00 L 578.55 52.25Z"/></g>
<g fill="#C3B8B6FE">
<path d="M 11.00 57.21 C 11.00 56.76 15.86 44.72 21.79 30.45 L 32.58 4.50 L 42.29 4.21 C 48.70 4.02 52.00 4.29 52.00 5.00 C 52.00 5.59 48.85 14.27 45.00 24.28 C 41.15 34.30 38.00 42.83 38.00 43.25 C 38.00 43.66 44.95 44.00 53.43 44.00 L 68.87 44.00 L 66.59 50.75 L 64.32 57.50 L 37.66 57.77 C 23.00 57.91 11.00 57.66 11.00 57.21Z"/></g>
<g fill="#C3B8B6FE">
<path d="M 277.02 55.75 C 277.03 54.15 279.18 16.75 279.98 4.25 C 279.99 4.11 284.27 4.00 289.50 4.00 L 299.00 4.00 L 299.00 21.85 C 299.00 31.66 298.71 43.81 298.35 48.85 L 297.70 58.00 L 287.35 58.00 C 277.28 58.00 277.00 57.94 277.02 55.75Z"/></g>
<g fill="#010101FE">
<path d="M 347.50 74.23 C 344.87 73.62 344.03 72.19 344.02 68.25 C 344.00 65.14 343.84 65.00 340.06 65.00 C 336.13 65.00 336.11 64.98 335.81 60.75 C 335.57 57.47 334.99 56.28 333.25 55.51 C 331.74 54.85 331.00 53.66 331.00 51.90 C 331.00 50.46 330.71 47.19 330.36 44.64 L 329.73 40.00 L 333.36 40.00 L 337.00 40.00 L 337.00 45.10 L 337.00 50.20 L 341.50 49.84 L 346.00 49.49 L 346.00 54.24 L 346.00 59.00 L 357.58 59.00 L 369.16 59.00 L 368.47 65.75 C 368.09 69.46 367.49 72.78 367.14 73.12 C 366.31 73.93 350.12 74.84 347.50 74.23Z"/></g>
<g fill="#010101FE">
<path d="M 42.44 34.75 C 44.25 30.21 47.40 22.14 49.44 16.82 L 53.15 7.14 L 55.54 9.22 C 56.86 10.37 57.72 11.64 57.47 12.05 C 57.22 12.46 57.68 13.05 58.51 13.36 C 59.33 13.68 60.00 14.63 60.00 15.47 C 60.00 16.31 60.67 17.00 61.50 17.00 C 62.33 17.00 63.00 17.51 63.00 18.14 C 63.00 18.77 63.67 19.78 64.48 20.39 C 65.76 21.35 65.46 22.96 62.23 32.24 L 58.50 42.99 L 48.83 42.99 L 39.16 43.00 L 42.44 34.75Z"/></g>
<g fill="#010101FE">
<path d="M 101.00 40.25 C 101.49 38.74 103.28 32.89 104.99 27.25 L 108.09 17.00 L 115.66 17.00 C 123.03 17.00 123.22 17.06 122.60 19.25 C 122.26 20.49 121.25 24.31 120.37 27.75 C 119.48 31.19 118.42 34.00 118.01 34.00 C 117.60 34.00 116.69 36.02 116.00 38.50 L 114.74 43.00 L 107.42 43.00 L 100.10 43.00 L 101.00 40.25Z"/></g>
<g fill="#010101FE">
<path d="M 277.12 69.67 C 276.50 67.02 276.00 63.53 276.00 61.92 L 276.00 59.00 L 288.00 59.00 L 300.00 59.00 L 300.00 66.50 C 300.00 75.09 301.44 74.23 286.87 74.40 L 278.24 74.50 L 277.12 69.67Z"/></g>
<g fill="#010101FE">
<path d="M 307.62 70.27 C 307.28 67.77 307.00 64.21 307.00 62.36 L 307.00 59.00 L 318.78 59.00 L 330.57 59.00 L 330.17 66.25 C 329.95 70.24 329.71 73.57 329.64 73.65 C 329.56 73.73 324.72 74.03 318.87 74.31 L 308.25 74.83 L 307.62 70.27Z"/></g>
<g fill="#010101FE">
<path d="M 236.63 32.75 C 237.33 27.11 237.93 21.26 237.95 19.75 C 238.00 17.15 238.26 17.00 242.64 17.00 L 247.27 17.00 L 246.64 21.64 C 246.29 24.19 246.00 27.80 246.00 29.66 C 246.00 32.36 245.49 33.24 243.50 34.00 C 241.40 34.80 241.00 35.60 241.00 38.98 C 241.00 42.73 240.81 43.00 238.17 43.00 L 235.35 43.00 L 236.63 32.75Z"/></g>
<g fill="#8C8684FE">
<path d="M 595.65 18.54 C 595.16 17.25 592.66 17.00 580.10 17.00 L 565.14 17.00 L 562.98 11.25 C 559.13 1.03 557.06 2.00 582.69 2.00 C 604.56 2.00 605.32 2.07 607.13 4.15 C 608.16 5.34 609.00 6.66 609.00 7.09 C 609.00 7.52 610.46 8.05 612.25 8.28 C 615.43 8.67 615.42 8.68 611.73 8.84 C 608.60 8.97 607.76 8.58 606.82 6.50 L 605.68 4.00 L 583.73 4.00 L 561.78 4.00 L 562.46 6.69 C 562.83 8.18 563.76 10.88 564.52 12.69 L 565.90 16.00 L 580.33 16.00 C 592.03 16.00 594.99 16.29 596.02 17.52 C 596.72 18.36 597.05 19.28 596.77 19.57 C 596.48 19.85 595.98 19.39 595.65 18.54Z"/></g>
<g fill="#010101FE">
<path d="M 169.34 29.25 C 169.60 28.29 170.08 26.30 170.40 24.84 C 170.87 22.76 171.43 22.30 173.05 22.72 C 174.57 23.12 175.27 22.70 175.68 21.13 C 176.47 18.11 183.00 17.99 183.00 21.00 C 183.00 22.28 183.67 23.00 184.84 23.00 C 186.41 23.00 186.59 23.56 186.09 26.67 C 185.76 28.69 184.86 30.55 184.09 30.80 C 183.12 31.13 182.88 30.76 183.31 29.64 C 183.84 28.25 183.13 28.00 178.58 28.00 C 174.73 28.00 173.05 28.42 172.64 29.50 C 171.81 31.67 168.75 31.44 169.34 29.25Z"/></g>
<g fill="#8C8684FE">
<path d="M 378.38 57.56 C 378.08 56.77 378.04 55.30 378.30 54.31 C 378.61 53.13 378.81 53.45 378.88 55.25 L 379.00 58.00 L 409.50 58.00 C 426.27 58.00 440.00 57.66 440.00 57.25 C 439.99 56.27 437.12 39.17 436.46 36.25 C 435.99 34.14 435.46 34.00 427.61 34.00 L 419.26 34.00 L 420.13 38.67 C 420.61 41.23 420.81 43.53 420.57 43.77 C 420.18 44.15 419.13 39.32 418.66 35.00 C 418.54 33.85 420.13 33.34 425.50 32.82 C 435.18 31.89 438.92 33.52 438.10 38.32 C 438.02 38.77 438.64 43.04 439.47 47.82 C 440.31 52.59 441.00 57.06 441.00 57.75 C 441.00 58.72 434.13 59.00 409.97 59.00 C 383.87 59.00 378.85 58.77 378.38 57.56Z"/></g>
<g fill="#8C8684FE">
<path d="M 500.54 3.25 C 500.17 2.27 505.17 2.00 523.53 2.00 C 537.93 2.00 547.00 2.37 547.00 2.96 C 547.00 4.52 501.14 4.81 500.54 3.25Z"/></g>
<g fill="#8C8684FE">
<path d="M 214.53 17.00 C 214.78 11.78 215.26 6.49 215.61 5.25 L 216.23 3.00 L 240.94 3.00 L 265.65 3.00 L 265.10 6.25 C 264.56 9.45 264.54 9.46 264.21 6.73 L 263.86 3.96 L 240.68 4.23 L 217.50 4.50 L 215.79 15.50 L 214.08 26.50 L 214.53 17.00Z"/></g>
<g fill="#8C8684FE">
<path d="M 432.60 12.50 C 431.26 3.10 434.38 4.00 402.99 4.00 L 375.12 4.00 L 374.79 7.75 L 374.47 11.50 L 373.96 7.25 L 373.45 3.00 L 403.19 3.00 L 432.93 3.00 L 433.59 8.00 C 433.96 10.75 434.76 13.01 435.38 13.02 C 436.19 13.03 436.19 13.24 435.40 13.77 C 434.79 14.17 434.08 15.18 433.81 16.00 C 433.54 16.82 433.00 15.25 432.60 12.50Z"/></g>
<g fill="#8C8684FE">
<path d="M 579.48 57.75 C 576.98 50.94 575.07 44.59 575.41 44.25 C 575.64 44.02 576.86 47.02 578.11 50.92 L 580.39 58.00 L 604.17 58.00 L 627.95 58.00 L 627.35 55.00 C 626.76 52.06 626.83 52.00 630.62 52.16 C 634.41 52.32 634.42 52.33 631.19 52.73 C 628.10 53.11 627.91 53.34 628.51 56.07 L 629.16 59.00 L 604.55 59.00 C 585.77 59.00 579.83 58.70 579.48 57.75Z"/></g>
<g fill="#8C8684FE">
<path d="M 10.02 57.25 C 10.03 55.98 10.25 55.85 10.83 56.77 C 11.46 57.75 17.57 57.97 37.98 57.77 L 64.33 57.50 L 66.42 51.29 C 68.39 45.41 71.00 41.11 71.00 43.74 C 71.00 44.37 70.59 45.14 70.08 45.45 C 69.57 45.77 68.18 48.94 67.00 52.51 L 64.84 59.00 L 37.42 59.00 C 11.97 59.00 10.00 58.87 10.02 57.25Z"/></g>
<g fill="#8C8684FE">
<path d="M 102.95 58.26 C 126.50 58.04 134.62 57.66 135.28 56.74 C 135.92 55.83 136.04 55.90 135.74 57.00 C 135.39 58.29 130.93 58.50 103.42 58.52 L 71.50 58.54 L 102.95 58.26Z"/></g>
<g fill="#8C8684FE">
<path d="M 89.02 4.75 C 89.00 3.12 91.11 3.00 119.50 3.00 C 136.28 3.00 150.00 3.34 150.00 3.75 C 150.00 4.16 136.65 4.37 120.33 4.22 C 97.07 4.00 90.48 4.22 89.84 5.22 C 89.25 6.16 89.03 6.03 89.02 4.75Z"/></g>
<g fill="#8C8684FE">
<path d="M 299.16 22.79 L 299.00 4.07 L 289.25 3.75 L 279.50 3.42 L 290.00 3.21 L 300.50 3.00 L 300.22 19.25 C 299.81 42.78 299.34 44.33 299.16 22.79Z"/></g>
<g fill="#8C8684FE">
<path d="M 209.14 56.25 C 209.25 53.89 209.33 53.82 209.71 55.75 L 210.14 58.00 L 235.07 58.00 C 259.08 58.00 260.00 57.93 260.00 56.06 C 260.00 54.99 260.37 53.89 260.82 53.61 C 261.27 53.33 261.44 54.43 261.21 56.05 L 260.77 59.00 L 234.89 59.00 L 209.00 59.00 L 209.14 56.25Z"/></g>
<g fill="#8C8684FE">
<path d="M 476.95 58.25 C 498.17 58.04 505.60 57.65 506.19 56.73 C 506.74 55.87 506.97 56.02 506.98 57.25 C 507.00 58.88 505.03 58.98 477.75 58.77 L 448.50 58.53 L 476.95 58.25Z"/></g>
<g fill="#423F3EFE">
<path d="M 143.07 58.62 C 143.03 58.14 145.27 48.11 148.04 36.34 C 150.81 24.56 152.85 14.57 152.58 14.13 C 152.31 13.69 152.70 13.33 153.45 13.33 C 154.20 13.33 154.64 13.82 154.44 14.42 C 154.24 15.01 152.02 24.50 149.51 35.50 C 145.41 53.44 143.26 61.16 143.07 58.62Z"/></g>
<g fill="#8C8684FE">
<path d="M 208.00 4.97 C 208.00 4.29 199.37 3.97 182.40 4.03 C 168.32 4.09 156.54 3.88 156.23 3.56 C 155.92 3.25 167.67 3.00 182.33 3.00 C 205.37 3.00 209.00 3.20 209.00 4.50 C 209.00 5.33 208.78 6.00 208.50 6.00 C 208.22 6.00 208.00 5.54 208.00 4.97Z"/></g>
<g fill="#423F3EFE">
<path d="M 299.53 58.75 C 299.13 50.38 299.26 42.85 299.83 40.50 C 300.58 37.42 300.82 40.69 300.90 54.75 C 300.95 64.79 300.82 73.00 300.60 73.00 C 300.39 73.00 299.90 66.59 299.53 58.75Z"/></g>
<g fill="#8C8684FE">
<path d="M 439.12 5.25 L 439.00 3.00 L 463.00 3.00 C 476.20 3.00 487.00 3.34 487.00 3.75 C 487.00 4.16 476.46 4.37 463.58 4.22 C 441.80 3.95 440.13 4.06 439.70 5.72 C 439.34 7.10 439.21 7.00 439.12 5.25Z"/></g>
<g fill="#8C8684FE">
<path d="M 515.67 58.33 C 515.30 57.97 515.01 57.18 515.02 56.58 C 515.02 55.96 515.38 56.05 515.85 56.79 C 516.48 57.79 521.98 58.01 540.83 57.79 C 554.13 57.63 565.00 57.84 565.00 58.25 C 565.00 59.18 516.59 59.26 515.67 58.33Z"/></g>
<g fill="#423F3EFE">
<path d="M 208.01 57.42 C 208.02 56.36 209.15 48.08 210.51 39.00 C 211.88 29.93 213.07 21.15 213.15 19.50 C 213.30 16.57 213.31 16.56 213.71 19.19 C 213.94 20.66 212.93 30.11 211.47 40.19 C 209.04 57.02 207.98 62.33 208.01 57.42Z"/></g>
<g fill="#8C8684FE">
<path d="M 570.15 31.43 C 566.74 22.53 566.06 23.00 582.42 23.00 C 593.01 23.00 596.97 22.67 597.34 21.75 C 597.64 21.00 597.87 21.20 597.92 22.25 C 597.99 23.84 596.67 24.00 583.50 24.00 C 575.52 24.00 569.00 24.34 569.00 24.75 C 569.00 25.16 569.92 27.92 571.04 30.87 C 572.17 33.83 572.91 36.43 572.69 36.64 C 572.47 36.86 571.33 34.52 570.15 31.43Z"/></g>
<g fill="#423F3EFE">
<path d="M 603.00 39.17 C 603.00 38.33 598.56 38.00 587.17 38.00 L 571.34 38.00 L 570.20 34.30 C 568.73 29.52 569.43 28.74 570.98 33.43 L 572.16 37.00 L 587.52 37.00 C 601.71 37.00 605.66 37.67 603.60 39.73 C 603.27 40.06 603.00 39.81 603.00 39.17Z"/></g>
<g fill="#8C8684FE">
<path d="M 397.25 19.75 L 397.50 16.50 L 415.00 16.46 L 432.50 16.42 L 415.31 16.74 L 398.12 17.05 L 397.56 20.02 C 397.02 22.92 397.01 22.91 397.25 19.75Z"/></g>
<g fill="#8C8684FE">
<path d="M 177.51 53.94 C 177.89 51.16 178.61 47.67 179.10 46.19 C 179.85 43.94 179.92 44.16 179.53 47.50 C 179.27 49.70 178.76 52.95 178.41 54.72 L 177.76 57.93 L 189.13 58.25 L 200.50 58.57 L 188.66 58.79 L 176.81 59.00 L 177.51 53.94Z"/></g>
<g fill="#423F3EFE">
<path d="M 469.14 43.52 C 469.83 42.84 503.07 42.74 503.76 43.42 C 504.07 43.74 496.31 44.00 486.50 44.00 C 476.69 44.00 468.88 43.79 469.14 43.52Z"/></g>
<g fill="#8C8684FE">
<path d="M 446.25 28.28 C 448.38 27.96 449.00 27.32 449.00 25.43 L 449.00 23.00 L 462.25 23.22 L 475.50 23.43 L 462.75 23.75 L 450.00 24.06 L 450.00 26.53 C 450.00 28.68 449.58 28.98 446.75 28.85 C 443.73 28.71 443.69 28.67 446.25 28.28Z"/></g>
<g fill="#423F3EFE">
<path d="M 107.13 43.26 L 114.76 42.92 L 116.01 38.46 C 117.29 33.89 119.71 32.02 118.60 36.46 C 116.68 44.12 116.83 44.02 107.77 43.80 L 99.50 43.60 L 107.13 43.26Z"/></g>
<g fill="#8C8684FE">
<path d="M 287.20 58.25 L 297.91 57.93 L 298.26 51.72 L 298.61 45.50 L 298.81 52.25 L 299.00 59.00 L 287.75 58.79 L 276.50 58.58 L 287.20 58.25Z"/></g>
<g fill="#423F3EFE">
<path d="M 574.02 44.75 C 574.00 43.15 575.33 43.02 589.75 43.22 L 605.50 43.44 L 590.54 43.75 C 580.14 43.96 575.35 44.43 574.81 45.28 C 574.27 46.13 574.03 45.97 574.02 44.75Z"/></g>
<g fill="#423F3EFE">
<path d="M 516.50 43.33 C 528.49 42.60 543.00 42.56 543.00 43.25 C 543.00 43.66 535.91 43.92 527.25 43.82 C 518.59 43.71 513.75 43.49 516.50 43.33Z"/></g>
<g fill="#8C8684FE">
<path d="M 520.96 23.25 C 530.96 23.04 535.66 22.57 536.19 21.72 C 536.73 20.87 536.97 21.04 536.98 22.25 C 537.00 23.85 535.70 23.98 521.75 23.78 L 506.50 23.56 L 520.96 23.25Z"/></g>
<g fill="#423F3EFE">
<path d="M 517.80 37.26 C 522.36 37.07 529.56 37.07 533.80 37.26 C 538.03 37.44 534.30 37.60 525.50 37.60 C 516.70 37.59 513.23 37.44 517.80 37.26Z"/></g>
<g fill="#423F3EFE">
<path d="M 46.80 43.26 C 51.36 43.07 58.56 43.07 62.80 43.26 C 67.03 43.44 63.30 43.60 54.50 43.60 C 45.70 43.59 42.23 43.44 46.80 43.26Z"/></g>
<g fill="#8C8684FE">
<path d="M 504.65 16.25 C 504.39 15.84 508.98 15.62 514.84 15.76 C 533.80 16.23 535.85 16.63 520.31 16.82 C 511.95 16.92 504.91 16.66 504.65 16.25Z"/></g>
<g fill="#8C8684FE">
<path d="M 450.25 16.26 C 454.51 16.07 461.49 16.07 465.75 16.26 C 470.01 16.44 466.52 16.60 458.00 16.60 C 449.48 16.60 445.99 16.44 450.25 16.26Z"/></g>
<g fill="#010101FE">
<path d="M 168.37 15.49 C 168.72 14.58 169.00 13.65 169.00 13.42 C 169.00 13.19 170.61 13.00 172.57 13.00 C 175.44 13.00 176.08 13.35 175.82 14.75 C 175.58 15.99 174.35 16.59 171.61 16.82 C 168.35 17.09 167.83 16.87 168.37 15.49Z"/></g>
<g fill="#8C8684FE">
<path d="M 308.17 7.75 L 308.00 3.00 L 318.75 3.21 L 329.50 3.42 L 319.31 3.75 L 309.11 4.07 L 308.73 8.28 L 308.35 12.50 L 308.17 7.75Z"/></g>
<g fill="#423F3EFE">
<path d="M 300.76 27.00 C 300.35 23.98 300.07 18.58 300.14 15.00 L 300.27 8.50 L 301.14 16.50 C 301.63 20.90 301.90 26.30 301.76 28.50 C 301.51 32.32 301.47 32.25 300.76 27.00Z"/></g>
<g fill="#010101FE">
<path d="M 186.00 15.00 C 186.00 13.38 186.67 13.00 189.50 13.00 C 192.33 13.00 193.00 13.38 193.00 15.00 C 193.00 16.62 192.33 17.00 189.50 17.00 C 186.67 17.00 186.00 16.62 186.00 15.00Z"/></g>
<g fill="#423F3EFE">
<path d="M 474.21 37.26 C 477.89 37.07 484.19 37.07 488.21 37.26 C 492.22 37.45 489.20 37.60 481.50 37.61 C 473.80 37.61 470.52 37.45 474.21 37.26Z"/></g>
<g fill="#010101FE">
<path d="M 307.39 21.50 C 307.40 13.80 307.55 10.78 307.74 14.79 C 307.93 18.81 307.93 25.11 307.74 28.79 C 307.55 32.48 307.39 29.20 307.39 21.50Z"/></g>
<g fill="#423F3EFE">
<path d="M 400.39 42.57 C 400.09 41.79 400.04 40.10 400.28 38.82 C 400.61 37.09 400.76 37.34 400.86 39.82 L 401.00 43.14 L 410.50 42.82 C 415.73 42.64 420.00 42.84 420.00 43.25 C 420.00 43.66 415.71 44.00 410.47 44.00 C 403.13 44.00 400.81 43.67 400.39 42.57Z"/></g>
<g fill="#8C8684FE">
<path d="M 52.00 4.93 C 52.00 4.23 48.61 3.97 42.00 4.18 C 36.50 4.36 32.00 4.16 32.00 3.75 C 32.00 3.34 36.88 3.00 42.83 3.00 C 51.80 3.00 53.67 3.26 53.67 4.50 C 53.67 5.33 53.29 6.00 52.83 6.00 C 52.38 6.00 52.00 5.52 52.00 4.93Z"/></g>
<g fill="#8C8684FE">
<path d="M 144.67 58.28 C 144.40 57.85 149.28 57.64 155.51 57.81 C 164.17 58.05 166.93 57.81 167.26 56.81 C 167.54 55.95 167.66 56.02 167.58 57.00 C 167.50 58.22 165.39 58.55 156.32 58.78 C 150.18 58.94 144.94 58.71 144.67 58.28Z"/></g>
<g fill="#423F3EFE">
<path d="M 186.00 27.00 C 186.64 23.50 186.50 23.00 184.87 23.00 C 183.69 23.00 183.00 22.29 183.00 21.06 C 183.00 19.63 182.16 19.02 179.75 18.72 L 176.50 18.32 L 179.84 18.16 C 182.42 18.04 183.31 18.46 183.71 20.00 C 184.01 21.16 185.07 22.00 186.23 22.00 C 187.82 22.00 188.11 22.47 187.63 24.25 C 187.30 25.49 187.02 27.51 187.01 28.75 C 187.01 29.99 186.61 31.00 186.13 31.00 C 185.66 31.00 185.60 29.20 186.00 27.00Z"/></g>
<g fill="#423F3EFE">
<path d="M 307.39 47.00 C 307.39 40.12 307.55 37.31 307.74 40.75 C 307.94 44.19 307.94 49.81 307.74 53.25 C 307.55 56.69 307.39 53.88 307.39 47.00Z"/></g>
<g fill="#8C8684FE">
<path d="M 352.25 58.26 C 355.41 58.06 360.59 58.06 363.75 58.26 C 366.91 58.46 364.32 58.62 358.00 58.62 C 351.68 58.62 349.09 58.46 352.25 58.26Z"/></g>
<g fill="#8C8684FE">
<path d="M 313.25 58.26 C 316.41 58.06 321.59 58.06 324.75 58.26 C 327.91 58.46 325.32 58.62 319.00 58.62 C 312.68 58.62 310.09 58.46 313.25 58.26Z"/></g>
<g fill="#8C8684FE">
<path d="M 349.75 3.26 C 352.64 3.06 357.36 3.06 360.25 3.26 C 363.14 3.46 360.77 3.63 355.00 3.63 C 349.23 3.63 346.86 3.46 349.75 3.26Z"/></g>
<g fill="#8C8684FE">
<path d="M 338.50 21.01 C 338.17 20.46 338.35 19.22 338.92 18.26 C 339.89 16.59 339.94 16.59 339.97 18.25 C 340.01 20.78 341.79 20.40 342.30 17.75 C 342.57 16.33 342.65 16.55 342.52 18.32 C 342.36 20.62 342.67 21.06 344.16 20.67 C 345.18 20.40 345.75 20.59 345.44 21.09 C 344.69 22.32 339.27 22.25 338.50 21.01Z"/></g>
<g fill="#8C8684FE">
<path d="M 186.25 22.29 C 184.84 22.02 184.00 21.14 184.00 19.93 C 184.00 18.31 184.72 18.00 188.43 18.00 C 191.51 18.00 193.00 17.54 193.32 16.48 C 193.66 15.41 193.75 15.49 193.64 16.73 C 193.52 18.07 192.44 18.58 189.24 18.81 C 186.91 18.98 185.00 19.54 185.00 20.06 C 185.00 20.58 185.65 21.00 186.44 21.00 C 187.23 21.00 188.16 21.45 188.50 22.00 C 188.84 22.55 188.98 22.94 188.81 22.86 C 188.64 22.79 187.49 22.53 186.25 22.29Z"/></g>
<g fill="#8C8684FE">
<path d="M 210.19 51.00 C 210.15 49.62 210.72 45.12 211.44 41.00 C 212.16 36.88 212.78 34.62 212.81 36.00 C 212.85 37.38 212.28 41.88 211.56 46.00 C 210.84 50.12 210.22 52.38 210.19 51.00Z"/></g>
<g fill="#010101FE">
<path d="M 343.75 20.43 C 343.34 20.01 343.00 17.63 343.00 15.13 C 343.00 11.93 343.31 10.91 344.06 11.66 C 344.65 12.25 344.99 14.63 344.81 16.96 C 344.64 19.28 344.16 20.85 343.75 20.43Z"/></g>
<g fill="#8C8684FE">
<path d="M 565.11 40.86 C 563.41 35.77 562.40 32.04 562.88 32.56 C 563.96 33.74 569.12 49.22 568.60 49.73 C 568.39 49.94 566.82 45.95 565.11 40.86Z"/></g>
<g fill="#8C8684FE">
<path d="M 494.55 12.81 C 493.94 9.83 493.28 9.03 491.15 8.71 C 488.62 8.32 488.63 8.29 491.51 8.15 C 495.10 7.97 496.94 10.38 495.97 14.00 C 495.34 16.33 495.25 16.25 494.55 12.81Z"/></g>
<g fill="#423F3EFE">
<path d="M 330.30 52.50 C 330.34 47.58 330.47 46.90 330.73 50.19 C 331.00 53.55 331.59 55.00 332.80 55.32 C 334.37 55.73 334.37 55.78 332.82 55.88 C 331.90 55.95 330.94 56.79 330.69 57.75 C 330.44 58.71 330.26 56.35 330.30 52.50Z"/></g>
<g fill="#423F3EFE">
<path d="M 276.35 51.00 C 276.35 46.33 276.52 44.41 276.73 46.75 C 276.94 49.09 276.94 52.91 276.73 55.25 C 276.52 57.59 276.35 55.67 276.35 51.00Z"/></g>
<g fill="#8C8684FE">
<path d="M 554.63 10.47 C 554.30 9.62 552.77 9.00 550.97 9.00 C 549.13 9.00 548.14 8.59 548.51 7.98 C 548.86 7.42 549.48 7.18 549.91 7.44 C 550.33 7.70 552.32 8.03 554.34 8.16 C 558.44 8.44 558.57 8.57 556.60 10.55 C 555.39 11.75 555.11 11.74 554.63 10.47Z"/></g>
<g fill="#8C8684FE">
<path d="M 168.56 31.09 C 168.25 30.59 168.95 30.44 170.13 30.74 C 171.50 31.10 172.58 30.72 173.18 29.65 C 174.13 27.94 181.42 27.25 182.36 28.77 C 182.62 29.19 181.00 29.36 178.77 29.15 C 175.78 28.86 174.47 29.19 173.81 30.38 C 172.83 32.12 169.48 32.58 168.56 31.09Z"/></g>
<g fill="#423F3EFE">
<path d="M 278.34 14.50 C 278.35 10.10 278.52 8.42 278.73 10.78 C 278.94 13.13 278.94 16.73 278.73 18.78 C 278.51 20.82 278.34 18.90 278.34 14.50Z"/></g>
<g fill="#423F3EFE">
<path d="M 277.34 32.50 C 277.35 28.10 277.52 26.42 277.73 28.78 C 277.94 31.13 277.94 34.73 277.73 36.78 C 277.51 38.82 277.34 36.90 277.34 32.50Z"/></g>
<g fill="#423F3EFE">
<path d="M 628.32 56.50 C 628.15 53.08 628.22 53.00 631.82 53.16 L 635.50 53.32 L 632.17 53.73 C 629.53 54.05 628.98 54.49 629.49 55.82 C 630.56 58.55 630.56 59.23 629.50 59.62 C 628.95 59.82 628.42 58.42 628.32 56.50Z"/></g>
<g fill="#8C8684FE">
<path d="M 557.60 30.41 C 557.20 29.35 557.65 28.64 558.93 28.31 C 560.54 27.89 560.71 27.38 559.94 25.33 C 559.42 23.98 559.01 22.56 559.03 22.18 C 559.08 21.17 560.65 24.15 561.45 26.75 C 562.01 28.61 561.75 29.00 559.94 29.00 C 558.11 29.00 557.96 29.24 559.00 30.50 C 559.72 31.36 559.81 32.00 559.23 32.00 C 558.67 32.00 557.94 31.28 557.60 30.41Z"/></g>
<g fill="#8C8684FE">
<path d="M 346.12 51.80 C 346.01 49.33 345.61 49.08 341.25 48.74 L 336.50 48.36 L 341.28 48.18 C 346.30 47.99 347.63 49.10 346.70 52.69 C 346.39 53.90 346.19 53.60 346.12 51.80Z"/></g>
<g fill="#8C8684FE">
<path d="M 270.61 11.57 C 270.24 10.11 269.10 8.97 267.75 8.71 C 266.12 8.39 266.40 8.23 268.75 8.14 C 271.72 8.01 272.00 8.25 272.00 11.00 C 272.00 14.63 271.43 14.86 270.61 11.57Z"/></g>
</svg>
